HIERARCHY
ROOT Hips
{
	OFFSET -3.958830 18.904000 13.208200
	CHANNELS 6 Xposition Yposition Zposition Zrotation Yrotation Xrotation 
	JOINT LHipJoint
	{
		OFFSET 0.000000 0.000000 0.000000
		CHANNELS 3 Zrotation Yrotation Xrotation
		JOINT LeftUpLeg
		{
			OFFSET 1.800000 -1.400000 0.085000
			CHANNELS 3 Zrotation Yrotation Xrotation
			JOINT LeftLeg
			{
				OFFSET 2.215000 -6.000000 0.000000
				CHANNELS 3 Zrotation Yrotation Xrotation
				JOINT LeftFoot
				{
					OFFSET 2.500000 -6.900000 0.000000
					CHANNELS 3 Zrotation Yrotation Xrotation
					JOINT LeftToeBase
					{
						OFFSET 0.200000 -0.500000 1.950000
						CHANNELS 3 Zrotation Yrotation Xrotation
						End Site
						{
							OFFSET 0.000000 0.000000 0.000000
						}
					}
				}
			}
		}
	}
	JOINT RHipJoint
	{
		OFFSET 0.000000 0.000000 0.000000
		CHANNELS 3 Zrotation Yrotation Xrotation
		JOINT RightUpLeg
		{
			OFFSET -1.800000 -1.400000 0.085000
			CHANNELS 3 Zrotation Yrotation Xrotation
			JOINT RightLeg
			{
				OFFSET -2.215000 -6.000000 0.000000
				CHANNELS 3 Zrotation Yrotation Xrotation
				JOINT RightFoot
				{
					OFFSET -2.500000 -6.900000 0.000000
					CHANNELS 3 Zrotation Yrotation Xrotation
					JOINT RightToeBase
					{
						OFFSET -0.200000 -0.500000 1.950000
						CHANNELS 3 Zrotation Yrotation Xrotation
						End Site
						{
							OFFSET 0.000000 0.000000 0.000000
						}
					}
				}
			}
		}
	}
	JOINT LowerBack
	{
		OFFSET 0.000000 0.000000 0.000000
		CHANNELS 3 Zrotation Yrotation Xrotation
		JOINT Spine
		{
			OFFSET -0.087000 1.940000 -0.288900
			CHANNELS 3 Zrotation Yrotation Xrotation
			JOINT Spine1
			{
				OFFSET 0.000000 1.950000 0.060000
				CHANNELS 3 Zrotation Yrotation Xrotation
				JOINT Neck
				{
					OFFSET 0.000000 0.000000 0.000000
					CHANNELS 3 Zrotation Yrotation Xrotation
					JOINT Neck1
					{
						OFFSET 0.000000 1.600000 0.340000
						CHANNELS 3 Zrotation Yrotation Xrotation
						JOINT Head
						{
							OFFSET 0.000000 1.667000 -0.240000
							CHANNELS 3 Zrotation Yrotation Xrotation
							End Site
							{
								OFFSET 0.000000 0.000000 0.000000
							}
						}
					}
				}
				JOINT LeftShoulder
				{
					OFFSET 0.000000 0.000000 0.000000
					CHANNELS 3 Zrotation Yrotation Xrotation
					JOINT LeftArm
					{
						OFFSET 2.700000 1.550000 -0.730000
						CHANNELS 3 Zrotation Yrotation Xrotation
						JOINT LeftForeArm
						{
							OFFSET 5.450000 0.000000 0.000000
							CHANNELS 3 Zrotation Yrotation Xrotation
							JOINT LeftHand
							{
								OFFSET 3.450000 0.000000 0.000000
								CHANNELS 3 Zrotation Yrotation Xrotation
								JOINT LeftHandIndex1
								{
									OFFSET 0.750000 0.000000 0.000000
									CHANNELS 3 Zrotation Yrotation Xrotation
									End Site
									{
										OFFSET 0.000000 0.000000 0.000000
									}
								}
							}
						}
					}
				}
				JOINT RightShoulder
				{
					OFFSET 0.000000 0.000000 0.000000
					CHANNELS 3 Zrotation Yrotation Xrotation
					JOINT RightArm
					{
						OFFSET -2.700000 1.550000 -0.730000
						CHANNELS 3 Zrotation Yrotation Xrotation
						JOINT RightForeArm
						{
							OFFSET -5.450000 0.000000 0.000000
							CHANNELS 3 Zrotation Yrotation Xrotation
							JOINT RightHand
							{
								OFFSET -3.450000 0.000000 0.000000
								CHANNELS 3 Zrotation Yrotation Xrotation
								JOINT RightHandIndex1
								{
									OFFSET -0.750000 0.000000 0.000000
									CHANNELS 3 Zrotation Yrotation Xrotation
									End Site
									{
										OFFSET 0.000000 0.000000 0.000000
									}
								}
							}
						}
					}
				}
			}
		}
	}
}
MOTION
Frames: 4
Frame Time: 0.016667
1.369950 14.419510 -1.187190 -11.065778 -48.985815 -7.662542 -15.769830 10.128280 3.777774 9.023248 -9.049473 -36.633675 18.374299 9.768166 108.576413 2.451403 16.786127 -0.970929 0.646360 0.689450 0.733610 18.508233 -7.248431 5.732084 -17.348097 10.185080 -67.493708 -10.911180 -14.362690 84.615031 -2.355381 -12.970981 -0.246292 0.437300 -0.253560 0.242280 -5.434958 -0.814568 -9.448467 19.461010 -30.277637 50.620712 -28.669975 -14.109276 16.188431 17.318083 -10.722325 -23.780215 -39.181391 30.577803 14.405460 -19.527420 20.363790 -21.574070 -6.567383 -44.849027 24.450041 -39.989871 -14.817155 2.484148 10.320487 2.271594 0.243782 -3.524792 3.115470 0.420040 -0.053180 0.413070 -0.043530 -28.377371 39.831129 -7.187193 -73.654184 -3.013875 -25.990885 -83.335444 26.212616 -18.634999 2.705988 -1.869594 0.007700 0.115320 -0.142160 -0.206120 
1.364570 14.473840 -1.183790 -10.224601 -49.001548 -8.574393 -15.748420 10.247112 3.713892 9.271114 -8.559221 -35.746583 17.672403 10.524806 107.442085 2.436675 16.744250 -0.959676 0.649890 0.705710 0.724450 18.503623 -7.370206 5.667717 -16.935460 10.368302 -66.457305 -11.543344 -13.378543 83.823632 -2.302534 -12.793931 -0.201859 0.453390 -0.230690 0.248880 -5.455011 -0.754060 -9.350604 19.394452 -30.199390 49.953599 -29.557233 -14.218760 16.889761 17.409127 -10.990716 -23.175731 -39.472558 30.301945 13.548220 -19.375960 20.228990 -20.977710 -7.075572 -44.516231 23.967679 -40.345056 -13.202504 2.534561 8.814174 1.849290 0.161125 -3.508708 3.123829 0.383780 -0.026890 0.395470 -0.035310 -27.920299 39.812356 -6.533460 -74.541790 -3.808613 -24.950023 -85.595430 24.378239 -18.205081 2.726030 -1.904015 0.013840 0.115020 -0.144510 -0.193190 
1.347900 14.532380 -1.172280 -9.754829 -48.545250 -9.372009 -15.700532 10.384914 3.607081 9.860377 -7.953890 -34.336292 16.931950 11.141982 105.852444 2.391341 16.636485 -0.945238 0.677850 0.743570 0.732380 18.515460 -7.580076 5.568255 -16.614093 10.400462 -64.922353 -11.849228 -12.759299 83.102363 -2.270062 -12.643552 -0.163008 0.481120 -0.224810 0.251230 -5.519671 -0.590595 -9.210028 20.171198 -30.511612 48.608462 -30.759673 -14.211711 17.788242 17.355869 -11.257614 -22.602843 -40.080040 29.973855 13.257351 -18.926230 19.379900 -20.916460 -7.373275 -44.208196 23.628044 -40.822426 -12.059730 2.635924 8.132335 1.892528 0.139666 -3.493364 3.130687 0.364650 -0.020500 0.391030 -0.026510 -27.397321 39.674063 -6.098316 -75.031436 -3.697178 -24.283271 -87.673838 23.758394 -18.412063 2.717795 -1.913267 0.025500 0.125750 -0.152790 -0.183010 
1.333660 14.590860 -1.164310 -9.503999 -48.007760 -10.024725 -15.660219 10.517227 3.531404 10.534040 -7.454051 -33.276652 16.329963 11.574741 104.440069 2.333188 16.535562 -0.933117 0.710320 0.786230 0.744320 18.525100 -7.749047 5.453510 -16.299001 10.432627 -63.347451 -11.952233 -12.342646 82.369038 -2.242835 -12.516001 -0.133666 0.518990 -0.212860 0.255520 -5.541969 -0.515754 -9.090169 20.759088 -30.671545 47.482691 -31.494947 -14.147086 18.885135 17.240182 -11.406411 -22.275337 -40.569590 29.786431 12.831662 -18.444730 18.703080 -20.805350 -7.627103 -44.318898 23.579786 -41.211050 -10.974613 2.688137 7.602735 1.996374 0.115309 -3.483298 3.137003 0.347640 -0.006970 0.385180 -0.014770 -26.793435 39.648514 -5.897213 -76.005120 -3.892592 -23.573342 -89.178028 24.531306 -19.123005 2.666330 -1.912841 0.029390 0.141270 -0.162150 -0.176260 
